<svg width="1600" height="1200" viewBox="0 0 1600 1200" fill="none" xmlns="http://www.w3.org/2000/svg">
  <rect width="1600" height="1200" fill="#E9EDF3"/>
  <rect x="74" y="74" width="1452" height="1052" rx="46" fill="url(#paint0_linear)"/>
  <rect x="74" y="74" width="1452" height="1052" rx="46" stroke="rgba(17,24,39,0.08)"/>
  <rect x="170" y="140" width="1260" height="710" rx="36" fill="#0F172A"/>
  <rect x="170" y="140" width="1260" height="710" rx="36" fill="url(#paint1_radial)"/>
  <g opacity="0.75">
    <path d="M170 224H1430" stroke="rgba(255,255,255,0.08)"/>
    <path d="M170 356H1430" stroke="rgba(255,255,255,0.08)"/>
    <path d="M170 488H1430" stroke="rgba(255,255,255,0.08)"/>
    <path d="M170 620H1430" stroke="rgba(255,255,255,0.08)"/>
    <path d="M170 752H1430" stroke="rgba(255,255,255,0.08)"/>
    <path d="M326 140V850" stroke="rgba(255,255,255,0.08)"/>
    <path d="M546 140V850" stroke="rgba(255,255,255,0.08)"/>
    <path d="M766 140V850" stroke="rgba(255,255,255,0.08)"/>
    <path d="M986 140V850" stroke="rgba(255,255,255,0.08)"/>
    <path d="M1206 140V850" stroke="rgba(255,255,255,0.08)"/>
  </g>
  <circle cx="1150" cy="368" r="190" fill="url(#paint2_radial)"/>
  <circle cx="480" cy="648" r="240" fill="url(#paint3_radial)"/>
  <rect x="248" y="914" width="310" height="108" rx="28" fill="#F8FAFC"/>
  <rect x="586" y="914" width="766" height="108" rx="28" fill="#F8FAFC"/>
  <path d="M286 969H435" stroke="#CBD5E1" stroke-width="20" stroke-linecap="round"/>
  <path d="M624 969H1227" stroke="#CBD5E1" stroke-width="20" stroke-linecap="round"/>
  <defs>
    <linearGradient id="paint0_linear" x1="800" y1="74" x2="800" y2="1126" gradientUnits="userSpaceOnUse">
      <stop stop-color="#F8FAFC"/>
      <stop offset="1" stop-color="#EEF2F7"/>
    </linearGradient>
    <radialGradient id="paint1_radial" cx="0" cy="0" r="1" gradientUnits="userSpaceOnUse" gradientTransform="translate(1226 224) rotate(133.221) scale(711.595 900.739)">
      <stop stop-color="#2B79FF"/>
      <stop offset="0.45" stop-color="#132139"/>
      <stop offset="1" stop-color="#0B1220"/>
    </radialGradient>
    <radialGradient id="paint2_radial" cx="0" cy="0" r="1" gradientUnits="userSpaceOnUse" gradientTransform="translate(1150 368) rotate(90) scale(190)">
      <stop stop-color="#4CC7FF" stop-opacity="0.65"/>
      <stop offset="1" stop-color="#4CC7FF" stop-opacity="0"/>
    </radialGradient>
    <radialGradient id="paint3_radial" cx="0" cy="0" r="1" gradientUnits="userSpaceOnUse" gradientTransform="translate(480 648) rotate(90) scale(240)">
      <stop stop-color="#2878FF" stop-opacity="0.35"/>
      <stop offset="1" stop-color="#2878FF" stop-opacity="0"/>
    </radialGradient>
  </defs>
</svg>
